HIERARCHY
ROOT Hips
{
	OFFSET 0.00 0.00 0.00
	CHANNELS 6 Xposition Yposition Zposition Xrotation Yrotation Zrotation
	JOINT RightUpLeg
	{
		OFFSET -3.69398 0.00000 0.00000
		CHANNELS 3 Xrotation Yrotation Zrotation
		JOINT RightLeg
		{
			OFFSET 0.00000 -15.79567 0.00000
			CHANNELS 3 Xrotation Yrotation Zrotation
			JOINT RightFoot
			{
				OFFSET 0.00000 -14.76699 0.00000
				CHANNELS 3 Xrotation Yrotation Zrotation
				JOINT RightToeBase
				{
					OFFSET 0.00000 -1.28446 4.79369
					CHANNELS 3 Xrotation Yrotation Zrotation
					End Site
					{
						OFFSET 0.00000 0.00000 2.95275
					}
				}
			}
		}
	}
	JOINT LeftUpLeg
	{
		OFFSET 3.69398 0.00000 0.00000
		CHANNELS 3 Xrotation Yrotation Zrotation
		JOINT LeftLeg
		{
			OFFSET 0.00000 -15.79567 0.00000
			CHANNELS 3 Xrotation Yrotation Zrotation
			JOINT LeftFoot
			{
				OFFSET 0.00000 -14.76699 0.00000
				CHANNELS 3 Xrotation Yrotation Zrotation
				JOINT LeftToeBase
				{
					OFFSET 0.00000 -1.28446 4.79369
					CHANNELS 3 Xrotation Yrotation Zrotation
					End Site
					{
						OFFSET 0.00000 0.00000 2.95275
					}
				}
			}
		}
	}
	JOINT Spine
	{
		OFFSET 0.00000 2.39296 0.00000
		CHANNELS 3 Xrotation Yrotation Zrotation
		JOINT RightShoulder
		{
			OFFSET 0.00000 13.20741 0.00000
			CHANNELS 3 Xrotation Yrotation Zrotation
			JOINT RightArm
			{
				OFFSET -8.14047 0.00000 0.00000
				CHANNELS 3 Xrotation Yrotation Zrotation
				JOINT RightForeArm
				{
					OFFSET -10.64984 0.00000 0.00000
					CHANNELS 3 Yrotation Zrotation Xrotation
					JOINT RightHand
					{
						OFFSET -8.30462 0.00000 0.00000
						CHANNELS 3 Xrotation Yrotation Zrotation
						End Site
						{
							OFFSET -3.93700 0.00000 0.00000
						}
						JOINT RightHandThumb1
						{
							OFFSET 0.00000 0.00000 0.00000
							CHANNELS 3 Xrotation Zrotation Yrotation
							End Site
							{
								OFFSET 0.00000 0.00000 3.93700
							}
						}
					}
				}
			}
		}
		JOINT LeftShoulder
		{
			OFFSET 0.00000 13.20741 0.00000
			CHANNELS 3 Xrotation Yrotation Zrotation
			JOINT LeftArm
			{
				OFFSET 8.14047 0.00000 0.00000
				CHANNELS 3 Xrotation Yrotation Zrotation
				JOINT LeftForeArm
				{
					OFFSET 10.64984 0.00000 0.00000
					CHANNELS 3 Yrotation Zrotation Xrotation
					JOINT LeftHand
					{
						OFFSET 8.30462 0.00000 0.00000
						CHANNELS 3 Xrotation Yrotation Zrotation
						End Site
						{
							OFFSET 3.93700 0.00000 0.00000
						}
						JOINT LeftHandThumb1
						{
							OFFSET 0.00000 0.00000 0.00000
							CHANNELS 3 Xrotation Zrotation Yrotation
							End Site
							{
								OFFSET 0.00000 0.00000 3.93700
							}
						}
					}
				}
			}
		}
		JOINT Head
		{
			OFFSET 0.00000 19.25010 0.00000
			CHANNELS 3 Xrotation Yrotation Zrotation
			End Site
			{
				OFFSET 0.00000 4.52755 0.00000
			}
		}
	}
}
MOTION
Frames: 7
Frame Time: 0.008333
 2.1029 32.4288 -4.6223 38.4795 4.4238 -2.0796 -31.4484 -12.1536 -2.4812 -3.1141 0.0000 0.0000 -12.3710 -10.1486 28.0539 30.4333 -0.0000 0.0000 -34.5182 6.1104 2.6244 1.1127 0.0000 -0.0000 -10.4655 -3.0017 -9.1599 10.4830 -0.0000 0.0000 -43.1658 1.0606 -1.6803 -24.7991 -5.0167 -40.2113 10.9882 13.7344 48.7375 -4.2585 -0.0000 -5.5886 -0.2109 12.9503 0.9411 32.8623 0.0000 -24.3270 -2.8221 12.1734 34.6831 -22.7626 -6.1791 -50.7798 -3.6856 0.0000 18.5756 -2.4767 23.7780 6.1231 33.1476 -0.0000 26.2537 20.4359 -5.9155 9.4856
 2.1125 32.4301 -4.6303 38.4746 4.4358 -2.0681 -31.4585 -12.1834 -2.5203 -3.1283 0.0000 0.0000 -12.3594 -10.1756 28.2252 30.6054 0.0000 -0.0000 -34.5123 6.1046 2.5900 1.0915 -0.0000 0.0000 -10.4286 -3.0013 -9.1759 10.4655 -0.0000 -0.0000 -43.1670 1.0277 -1.7142 -24.5542 -5.2539 -39.9100 11.0334 13.9267 49.3624 -4.2208 -0.0000 -5.5674 -0.2056 13.0482 0.9108 32.8623 0.0000 -24.3270 -2.6392 12.2457 34.4528 -22.5902 -6.3994 -51.5221 -3.3214 0.0000 18.6083 -2.3117 23.6104 5.7554 33.1476 -0.0000 26.2537 21.0409 -5.9708 9.6790
 2.1229 32.4312 -4.6421 38.4762 4.4478 -2.0607 -31.4830 -12.1632 -2.5557 -3.1290 0.0000 0.0000 -12.3293 -10.1681 28.1337 30.4774 -0.0000 0.0000 -34.5327 6.1307 2.5572 1.0922 -0.0000 -0.0000 -10.4083 -3.0423 -9.1542 10.4228 0.0000 -0.0000 -43.1570 0.9855 -1.7388 -24.2918 -5.5136 -39.6141 11.0722 14.2326 49.9756 -4.2718 -0.0000 -5.6178 -0.2307 13.1109 1.0170 32.8623 0.0000 -24.3270 -2.5395 12.2284 34.2346 -22.3697 -6.5197 -52.2784 -2.9061 0.0000 18.4625 -2.0177 23.4251 5.0642 33.1476 -0.0000 26.2537 21.6296 -6.0023 9.8802
 2.1332 32.4323 -4.6553 38.4568 4.4491 -2.0403 -31.4989 -12.1283 -2.5944 -3.1193 -0.0000 -0.0000 -12.3149 -10.1772 28.0960 30.4715 0.0000 -0.0000 -34.5295 6.1393 2.5210 1.0895 0.0000 -0.0000 -10.3761 -3.0495 -9.1416 10.4338 0.0000 -0.0000 -43.1164 0.9395 -1.7695 -24.1375 -5.6764 -39.3215 11.1834 14.4568 50.6024 -4.3268 -0.0000 -5.6938 -0.2676 13.1989 1.1717 32.8623 0.0000 -24.3270 -2.3379 12.3341 33.9880 -22.2630 -6.6233 -53.0274 -2.6277 0.0000 18.4757 -1.7705 23.4519 4.4412 33.1476 -0.0000 26.2537 22.2040 -6.0094 10.0717
 2.1441 32.4337 -4.6690 38.4476 4.4671 -2.0449 -31.5202 -12.1067 -2.6230 -3.1068 0.0000 -0.0000 -12.2870 -10.1948 28.0426 30.3680 -0.0000 0.0000 -34.5481 6.1435 2.4966 1.0987 -0.0000 0.0000 -10.3670 -3.0753 -9.1384 10.5035 -0.0000 0.0000 -43.0839 0.8458 -1.7865 -23.8642 -5.9236 -39.0435 11.0933 14.6614 51.2710 -4.3667 -0.0000 -5.6765 -0.3070 13.2326 1.3410 32.8623 0.0000 -24.3270 -2.1915 12.3729 33.7644 -22.0505 -6.6231 -53.8104 -2.3717 0.0000 18.2602 -1.6863 23.2986 4.2569 33.1476 -0.0000 26.2537 22.7778 -5.9939 10.2449
 2.1554 32.4348 -4.6822 38.4333 4.4852 -2.0543 -31.5383 -12.1099 -2.6497 -3.0891 -0.0000 -0.0000 -12.2734 -10.2226 28.0583 30.3806 0.0000 -0.0000 -34.5603 6.1408 2.4766 1.1061 -0.0000 0.0000 -10.3690 -3.0863 -9.2025 10.5567 0.0000 -0.0000 -43.0391 0.7513 -1.7954 -23.7472 -6.0754 -38.7699 11.2224 14.9433 51.9051 -4.3942 -0.0000 -5.8997 -0.2549 13.3962 1.0999 32.8623 0.0000 -24.3270 -2.0204 12.4207 33.5364 -21.8413 -6.6284 -54.5781 -2.1586 0.0000 18.3128 -1.4661 23.2275 3.7131 33.1476 -0.0000 26.2537 23.3279 -5.9880 10.4223
 2.1688 32.4357 -4.6914 38.4014 4.4813 -2.0291 -31.5273 -12.0532 -2.6907 -3.0978 -0.0000 -0.0000 -12.2423 -10.2565 27.9973 30.3481 0.0000 0.0000 -34.5241 6.1688 2.4332 1.0815 -0.0000 -0.0000 -10.3396 -3.1163 -9.1532 10.4821 0.0000 -0.0000 -42.9821 0.6961 -1.8059 -23.5585 -6.2472 -38.5297 11.1797 15.0019 52.6067 -4.3424 -0.0000 -5.7606 -0.1865 13.4227 0.8033 32.8623 0.0000 -24.3270 -1.7536 12.5122 33.2870 -21.6562 -6.6559 -55.3418 -2.0093 0.0000 18.2187 -1.2708 23.1041 3.2357 33.1476 -0.0000 26.2537 23.8732 -5.9396 10.5775
